<?xml version="1.0" standalone="no"?>
<!DOCTYPE svg PUBLIC "-//W3C//DTD SVG 20010904//EN"
 "http://www.w3.org/TR/2001/REC-SVG-20010904/DTD/svg10.dtd">
<svg version="1.0" xmlns="http://www.w3.org/2000/svg"
 width="268.000000pt" height="268.000000pt" viewBox="0 0 268.000000 268.000000"
 preserveAspectRatio="xMidYMid meet">
<metadata>
Created by potrace 1.14, written by Peter Selinger 2001-2017
</metadata>
<g transform="translate(0.000000,268.000000) scale(0.100000,-0.100000)"
fill="#000000" stroke="none">
<path d="M1735 2640 c-68 -40 -293 -113 -445 -144 -144 -29 -322 -56 -371 -56
l-34 0 0 -832 0 -833 -88 -3 -88 -3 6 -32 c3 -18 12 -90 20 -161 8 -71 16
-130 18 -132 2 -2 28 0 57 6 91 17 84 35 77 -187 -4 -109 -9 -210 -13 -225
l-6 -28 172 0 173 0 -7 38 c-3 20 -9 132 -13 248 l-6 211 114 17 c112 17 385
70 527 102 l72 16 0 139 c0 105 -3 139 -12 139 -7 0 -92 -16 -189 -34 -165
-33 -445 -76 -489 -76 -19 0 -20 6 -20 170 l0 170 340 0 340 0 0 139 0 138
-337 -1 -338 -1 -3 138 -3 139 341 -4 340 -3 0 140 0 140 -340 -4 -341 -3 3
103 3 104 150 31 c161 34 214 48 458 126 126 40 157 53 152 66 -11 30 -157
272 -163 271 -4 0 -29 -13 -57 -29z"/>
</g>
</svg>
