<?xml version="1.0" standalone="no"?>
<!DOCTYPE svg PUBLIC "-//W3C//DTD SVG 20010904//EN"
 "http://www.w3.org/TR/2001/REC-SVG-20010904/DTD/svg10.dtd">
<svg version="1.0" xmlns="http://www.w3.org/2000/svg"
 width="216.000000pt" height="216.000000pt" viewBox="0 0 216.000000 216.000000"
 preserveAspectRatio="xMidYMid meet">
<metadata>
Created by potrace 1.14, written by Peter Selinger 2001-2017
</metadata>
<g transform="translate(0.000000,216.000000) scale(0.100000,-0.100000)"
fill="#000000" stroke="none">
<path d="M675 1553 c4 -10 10 -168 13 -352 l5 -333 -324 4 c-178 3 -332 8
-341 12 -17 8 -18 -3 -18 -146 l0 -154 78 8 c100 11 2031 6 2055 -6 16 -8 17
3 17 149 0 146 -1 157 -17 150 -10 -4 -101 -10 -202 -13 l-184 -5 46 64 c90
123 295 465 285 474 -9 8 -249 125 -256 125 -5 0 -24 -34 -42 -75 -44 -100
-133 -253 -208 -358 -34 -47 -62 -87 -62 -90 0 -3 45 -33 100 -67 55 -34 100
-64 100 -66 0 -2 -59 -4 -131 -4 l-131 0 3 350 4 350 -147 0 -148 0 6 -42 c4
-23 8 -180 8 -348 l1 -305 -114 -3 -113 -3 4 333 c3 183 8 341 13 351 7 16 -4
17 -150 17 -146 0 -157 -1 -150 -17z"/>
<path d="M217 1479 l-117 -59 38 -58 c59 -86 130 -221 177 -338 24 -58 45
-108 48 -110 5 -6 247 113 247 121 0 2 -20 51 -45 108 -65 147 -205 398 -223
396 -4 0 -60 -27 -125 -60z"/>
</g>
</svg>
