<?xml version="1.0" standalone="no"?>
<!DOCTYPE svg PUBLIC "-//W3C//DTD SVG 20010904//EN"
 "http://www.w3.org/TR/2001/REC-SVG-20010904/DTD/svg10.dtd">
<svg version="1.0" xmlns="http://www.w3.org/2000/svg"
 width="268.000000pt" height="268.000000pt" viewBox="0 0 268.000000 268.000000"
 preserveAspectRatio="xMidYMid meet">
<metadata>
Created by potrace 1.14, written by Peter Selinger 2001-2017
</metadata>
<g transform="translate(0.000000,268.000000) scale(0.100000,-0.100000)"
fill="#000000" stroke="none">
<path d="M1166 2093 c1 -636 -9 -863 -46 -998 -25 -92 -72 -209 -98 -243 l-18
-23 -68 71 c-80 85 -149 177 -182 243 -13 26 -29 47 -34 47 -12 0 -222 -104
-257 -127 l-23 -15 78 -101 c42 -55 125 -151 185 -213 59 -61 107 -114 107
-117 0 -11 -133 -90 -230 -135 -127 -60 -254 -101 -420 -137 -69 -15 -130 -28
-137 -30 -7 -3 6 -30 34 -72 25 -37 64 -105 86 -151 30 -62 44 -81 56 -78 9 3
68 21 131 40 294 89 481 177 664 315 l79 59 61 -35 c333 -190 832 -315 1295
-326 l114 -2 28 88 c16 49 45 122 64 164 19 42 35 77 35 78 0 1 -83 5 -184 9
-515 18 -851 79 -1117 203 l-96 45 44 76 c81 143 122 272 149 472 13 94 25
531 36 1283 l3 187 -170 0 -170 0 1 -577z"/>
</g>
</svg>
