<?xml version="1.0" standalone="no"?>
<!DOCTYPE svg PUBLIC "-//W3C//DTD SVG 20010904//EN"
 "http://www.w3.org/TR/2001/REC-SVG-20010904/DTD/svg10.dtd">
<svg version="1.0" xmlns="http://www.w3.org/2000/svg"
 width="227.000000pt" height="227.000000pt" viewBox="0 0 227.000000 227.000000"
 preserveAspectRatio="xMidYMid meet">
<metadata>
Created by potrace 1.14, written by Peter Selinger 2001-2017
</metadata>
<g transform="translate(0.000000,227.000000) scale(0.100000,-0.100000)"
fill="#000000" stroke="none">
<path d="M14 2164 c3 -43 6 -538 6 -1101 l0 -1023 160 0 160 0 0 470 0 470
795 0 795 0 0 -95 0 -95 163 0 162 0 0 724 0 725 -30 -7 c-41 -10 -2142 -9
-2184 1 l-34 7 7 -76z m961 -569 l0 -330 -317 -3 -318 -2 0 335 0 335 318 -2
317 -3 0 -330z m955 0 l0 -335 -325 0 -325 0 0 335 0 335 325 0 325 0 0 -335z"/>
</g>
</svg>
