<?xml version="1.0" standalone="no"?>
<!DOCTYPE svg PUBLIC "-//W3C//DTD SVG 20010904//EN"
 "http://www.w3.org/TR/2001/REC-SVG-20010904/DTD/svg10.dtd">
<svg version="1.0" xmlns="http://www.w3.org/2000/svg"
 width="227.000000pt" height="227.000000pt" viewBox="0 0 227.000000 227.000000"
 preserveAspectRatio="xMidYMid meet">
<metadata>
Created by potrace 1.14, written by Peter Selinger 2001-2017
</metadata>
<g transform="translate(0.000000,227.000000) scale(0.100000,-0.100000)"
fill="#000000" stroke="none">
<path d="M13 1695 c4 -43 7 -327 7 -632 l0 -553 1114 0 1114 0 4 628 c2 345 4
627 4 628 -1 0 -48 -3 -106 -8 -136 -12 -2099 -6 -2124 6 -18 9 -19 6 -13 -69z
m962 -570 l0 -330 -317 -3 -318 -2 0 335 0 335 318 -2 317 -3 0 -330z m955 0
l0 -335 -325 0 -325 0 0 335 0 335 325 0 325 0 0 -335z"/>
</g>
</svg>
