<?xml version="1.0" standalone="no"?>
<!DOCTYPE svg PUBLIC "-//W3C//DTD SVG 20010904//EN"
 "http://www.w3.org/TR/2001/REC-SVG-20010904/DTD/svg10.dtd">
<svg version="1.0" xmlns="http://www.w3.org/2000/svg"
 width="248.000000pt" height="248.000000pt" viewBox="0 0 248.000000 248.000000"
 preserveAspectRatio="xMidYMid meet">
<metadata>
Created by potrace 1.14, written by Peter Selinger 2001-2017
</metadata>
<g transform="translate(0.000000,248.000000) scale(0.100000,-0.100000)"
fill="#000000" stroke="none">
<path d="M10 1850 l0 -160 63 8 c81 9 2263 9 2345 0 l62 -8 0 160 0 160 -92
-8 c-120 -9 -2187 -9 -2295 0 l-83 7 0 -159z"/>
<path d="M282 1385 c9 -91 9 -739 0 -830 l-7 -70 965 0 965 0 0 485 0 485
-965 0 -965 0 7 -70z m1608 -410 l0 -205 -645 0 -645 0 0 205 0 205 645 0 645
0 0 -205z"/>
</g>
</svg>
