<?xml version="1.0" standalone="no"?>
<!DOCTYPE svg PUBLIC "-//W3C//DTD SVG 20010904//EN"
 "http://www.w3.org/TR/2001/REC-SVG-20010904/DTD/svg10.dtd">
<svg version="1.0" xmlns="http://www.w3.org/2000/svg"
 width="254.000000pt" height="254.000000pt" viewBox="0 0 254.000000 254.000000"
 preserveAspectRatio="xMidYMid meet">
<metadata>
Created by potrace 1.14, written by Peter Selinger 2001-2017
</metadata>
<g transform="translate(0.000000,254.000000) scale(0.100000,-0.100000)"
fill="#000000" stroke="none">
<path d="M1097 2065 l6 -95 -469 1 c-258 0 -504 4 -546 7 l-78 8 0 -149 c0
-138 1 -149 17 -141 10 4 255 10 546 12 l527 4 0 -57 0 -56 -392 3 -393 3 0
-610 0 -610 955 0 955 0 0 610 0 610 -397 -3 -398 -3 0 56 0 57 533 -4 c292
-2 540 -8 550 -12 16 -8 17 3 17 141 l0 149 -77 -8 c-43 -3 -291 -7 -552 -7
l-474 -1 5 95 5 95 -173 0 -173 0 6 -95z m823 -760 l0 -55 -645 0 -645 0 0 55
0 55 645 0 645 0 0 -55z m0 -310 l0 -55 -645 0 -645 0 0 55 0 55 645 0 645 0
0 -55z m-2 -312 l-3 -58 -642 -3 -643 -2 0 60 0 60 645 0 646 0 -3 -57z"/>
</g>
</svg>
