<?xml version="1.0" standalone="no"?>
<!DOCTYPE svg PUBLIC "-//W3C//DTD SVG 20010904//EN"
 "http://www.w3.org/TR/2001/REC-SVG-20010904/DTD/svg10.dtd">
<svg version="1.0" xmlns="http://www.w3.org/2000/svg"
 width="250.000000pt" height="250.000000pt" viewBox="0 0 250.000000 250.000000"
 preserveAspectRatio="xMidYMid meet">
<metadata>
Created by potrace 1.14, written by Peter Selinger 2001-2017
</metadata>
<g transform="translate(0.000000,250.000000) scale(0.100000,-0.100000)"
fill="#000000" stroke="none">
<path d="M1114 1761 l-151 -26 79 -160 c43 -87 74 -163 70 -167 -5 -5 -64 -7
-132 -6 l-124 3 -56 100 c-58 105 -145 241 -160 250 -8 5 -300 -52 -308 -60
-2 -2 21 -39 51 -82 62 -90 117 -185 117 -203 0 -10 -50 -11 -233 -5 -127 4
-235 8 -240 9 -4 0 -8 -160 -10 -357 l-2 -357 155 2 155 3 3 218 2 217 925 0
925 0 0 -220 0 -220 161 0 c143 0 160 2 155 16 -3 9 -6 169 -6 357 l0 342
-230 -9 c-127 -5 -233 -6 -237 -3 -3 3 24 52 59 109 83 133 121 199 116 203
-1 1 -68 17 -148 35 -80 17 -152 34 -161 36 -13 4 -31 -24 -77 -120 -33 -69
-81 -157 -106 -196 l-46 -71 -100 3 -101 3 -43 100 c-57 133 -134 285 -144
284 -4 -1 -75 -13 -158 -28z"/>
</g>
</svg>
