<?xml version="1.0" standalone="no"?>
<!DOCTYPE svg PUBLIC "-//W3C//DTD SVG 20010904//EN"
 "http://www.w3.org/TR/2001/REC-SVG-20010904/DTD/svg10.dtd">
<svg version="1.0" xmlns="http://www.w3.org/2000/svg"
 width="193.000000pt" height="193.000000pt" viewBox="0 0 193.000000 193.000000"
 preserveAspectRatio="xMidYMid meet">
<metadata>
Created by potrace 1.14, written by Peter Selinger 2001-2017
</metadata>
<g transform="translate(0.000000,193.000000) scale(0.100000,-0.100000)"
fill="#000000" stroke="none">
<path d="M251 1549 c-57 -60 -102 -111 -100 -113 2 -2 49 -34 104 -71 110 -74
244 -180 349 -276 l68 -63 99 105 c55 57 103 111 108 119 7 12 -21 39 -126
124 -126 103 -379 287 -392 285 -3 0 -53 -50 -110 -110z"/>
<path d="M1519 1633 c-98 -106 -304 -259 -464 -344 -44 -23 -82 -44 -84 -45
-4 -3 165 -205 183 -218 16 -11 66 18 241 135 159 107 395 295 395 314 0 5
-209 162 -236 178 -6 3 -22 -5 -35 -20z"/>
<path d="M1071 864 c-50 -58 -91 -108 -91 -112 0 -4 78 -49 173 -100 199 -107
340 -193 485 -298 57 -41 105 -74 107 -74 8 0 168 262 169 278 2 24 -250 174
-510 302 -121 61 -225 110 -231 110 -5 0 -51 -47 -102 -106z"/>
<path d="M680 909 c-108 -72 -448 -239 -565 -278 -55 -19 -102 -36 -104 -38
-6 -4 110 -313 118 -313 21 0 484 241 576 299 61 39 117 75 125 80 13 8 11 24
-14 123 -44 170 -46 178 -54 177 -4 0 -41 -23 -82 -50z"/>
</g>
</svg>
