<?xml version="1.0" standalone="no"?>
<!DOCTYPE svg PUBLIC "-//W3C//DTD SVG 20010904//EN"
 "http://www.w3.org/TR/2001/REC-SVG-20010904/DTD/svg10.dtd">
<svg version="1.0" xmlns="http://www.w3.org/2000/svg"
 width="210.000000pt" height="210.000000pt" viewBox="0 0 210.000000 210.000000"
 preserveAspectRatio="xMidYMid meet">
<metadata>
Created by potrace 1.14, written by Peter Selinger 2001-2017
</metadata>
<g transform="translate(0.000000,210.000000) scale(0.100000,-0.100000)"
fill="#000000" stroke="none">
<path d="M806 2093 c-3 -3 -6 -13 -6 -22 0 -9 -23 -63 -51 -121 -49 -103 -102
-183 -162 -247 -17 -18 -29 -34 -26 -37 2 -2 31 -17 64 -34 33 -16 71 -40 85
-52 l25 -21 -87 5 -88 5 0 -106 0 -105 150 7 c114 6 150 4 150 -5 0 -42 -209
-288 -314 -369 l-56 -43 22 -37 c13 -20 37 -65 55 -101 l31 -65 66 67 66 67
-1 -362 c0 -199 -4 -395 -8 -435 l-7 -72 118 0 118 0 0 55 0 55 310 0 310 0 0
95 0 95 -115 0 -115 0 0 66 0 66 110 -7 110 -7 0 89 0 89 -110 -4 -110 -5 0
63 0 63 110 -5 110 -4 0 86 0 86 -110 -4 -110 -5 0 63 0 63 125 -5 125 -5 0
97 0 96 -110 -4 c-60 -3 -110 -2 -110 2 0 3 14 28 30 54 17 27 30 51 30 54 0
7 -188 53 -193 48 -1 -3 -20 -40 -41 -82 l-37 -78 -80 0 -80 0 29 43 c16 23
42 66 58 96 l29 54 242 -6 243 -5 0 102 0 101 -201 -3 c-192 -4 -202 -3 -197
15 3 10 14 46 24 80 l19 63 163 0 162 0 0 103 0 102 -301 -3 -300 -4 31 62
c17 34 29 64 27 66 -4 4 -62 19 -193 49 -12 2 -24 2 -28 -2z m203 -390 c0 -10
-10 -45 -22 -78 l-22 -60 -104 -3 -104 -3 16 23 c9 13 33 49 54 80 l38 58 73
0 c62 0 72 -2 71 -17z m131 -763 l0 -60 -100 0 -100 0 0 60 0 60 100 0 100 0
0 -60z m0 -280 l0 -60 -100 0 -100 0 0 60 0 60 100 0 100 0 0 -60z m-2 -287
l3 -63 -101 0 -100 0 0 58 c0 32 3 62 7 66 4 4 48 5 98 4 l90 -3 3 -62z"/>
</g>
</svg>
