<?xml version="1.0" standalone="no"?>
<!DOCTYPE svg PUBLIC "-//W3C//DTD SVG 20010904//EN"
 "http://www.w3.org/TR/2001/REC-SVG-20010904/DTD/svg10.dtd">
<svg version="1.0" xmlns="http://www.w3.org/2000/svg"
 width="154.000000pt" height="155.000000pt" viewBox="0 0 154.000000 155.000000"
 preserveAspectRatio="xMidYMid meet">
<metadata>
Created by potrace 1.14, written by Peter Selinger 2001-2017
</metadata>
<g transform="translate(0.000000,155.000000) scale(0.100000,-0.100000)"
fill="#000000" stroke="none">
<path d="M1078 1484 c-43 -31 -78 -59 -77 -62 0 -4 30 -26 67 -50 37 -24 83
-57 102 -73 l34 -29 -148 0 -148 0 7 103 c4 56 8 107 9 112 0 6 -57 11 -150
13 l-151 3 5 -116 5 -115 -244 1 c-134 0 -274 3 -311 8 l-68 7 0 -140 0 -141
102 6 c57 4 196 7 311 8 l207 1 0 -56 0 -56 -263 4 -262 3 8 -120 c5 -66 7
-259 4 -430 l-5 -310 662 0 661 0 0 430 0 430 -263 -3 -263 -4 3 54 3 53 313
-2 312 -2 0 135 0 135 -130 -7 c-71 -4 -130 -4 -130 -1 0 3 29 27 65 53 63 46
64 48 47 67 -37 42 -203 148 -229 147 -4 -1 -43 -26 -85 -56z m-448 -839 l0
-65 -120 0 -120 0 0 65 0 65 120 0 120 0 0 -65z m540 0 l0 -65 -130 0 -130 0
0 58 c0 32 3 62 7 65 3 4 62 7 130 7 l123 0 0 -65z m-540 -320 l0 -65 -120 0
-120 0 0 65 0 65 120 0 120 0 0 -65z m538 3 l-3 -63 -125 0 -125 0 -3 63 -3
62 131 0 131 0 -3 -62z"/>
</g>
</svg>
