<?xml version="1.0" standalone="no"?>
<!DOCTYPE svg PUBLIC "-//W3C//DTD SVG 20010904//EN"
 "http://www.w3.org/TR/2001/REC-SVG-20010904/DTD/svg10.dtd">
<svg version="1.0" xmlns="http://www.w3.org/2000/svg"
 width="189.000000pt" height="189.000000pt" viewBox="0 0 189.000000 189.000000"
 preserveAspectRatio="xMidYMid meet">
<metadata>
Created by potrace 1.14, written by Peter Selinger 2001-2017
</metadata>
<g transform="translate(0.000000,189.000000) scale(0.100000,-0.100000)"
fill="#000000" stroke="none">
<path d="M738 1599 l5 -122 -354 5 c-195 3 -362 9 -371 13 -17 7 -18 -4 -18
-141 l0 -149 370 3 370 3 0 -95 0 -96 -345 0 -345 0 0 -417 0 -418 863 0 862
0 0 417 0 418 -367 0 -368 0 0 96 0 95 420 -3 420 -3 0 149 c0 137 -1 148 -17
141 -10 -4 -200 -10 -422 -13 l-404 -5 6 122 6 121 -158 0 -158 0 5 -121z
m-190 -991 l-3 -153 -110 0 -110 0 -3 153 -3 152 116 0 116 0 -3 -152z m472
-3 l0 -155 -115 0 -115 0 0 155 0 155 115 0 115 0 0 -155z m470 0 l0 -155
-110 0 -110 0 0 155 0 155 110 0 110 0 0 -155z"/>
</g>
</svg>
