<?xml version="1.0" standalone="no"?>
<!DOCTYPE svg PUBLIC "-//W3C//DTD SVG 20010904//EN"
 "http://www.w3.org/TR/2001/REC-SVG-20010904/DTD/svg10.dtd">
<svg version="1.0" xmlns="http://www.w3.org/2000/svg"
 width="198.000000pt" height="198.000000pt" viewBox="0 0 198.000000 198.000000"
 preserveAspectRatio="xMidYMid meet">
<metadata>
Created by potrace 1.14, written by Peter Selinger 2001-2017
</metadata>
<g transform="translate(0.000000,198.000000) scale(0.100000,-0.100000)"
fill="#000000" stroke="none">
<path d="M195 1348 l0 -298 213 0 c135 0 211 -4 207 -10 -3 -5 -54 -42 -113
-81 -122 -82 -280 -162 -411 -209 l-90 -32 50 -65 c27 -36 63 -92 80 -125 l30
-59 147 76 c151 78 280 164 383 254 32 28 59 51 61 51 3 0 3 -26 1 -57 -1 -32
-4 -147 -6 -255 l-4 -198 157 0 158 0 -4 127 c-2 71 -6 181 -8 245 l-4 117 48
-58 c124 -149 325 -280 575 -374 172 -65 160 -66 199 23 18 42 50 102 70 134
20 32 36 59 34 60 -2 2 -30 8 -63 15 -72 16 -229 65 -292 92 l-45 19 79 56
c95 68 193 147 193 155 0 3 -44 26 -97 51 l-98 46 50 1 50 1 0 298 0 297 -775
0 -775 0 0 -297z m1255 -3 l0 -75 -480 0 -480 0 0 75 0 75 480 0 480 0 0 -75z
m91 -324 c-12 -16 -58 -60 -102 -97 -77 -64 -81 -66 -106 -53 -26 14 -213 167
-213 175 0 2 99 4 221 4 l220 0 -20 -29z"/>
</g>
</svg>
